<svg xmlns="http://www.w3.org/2000/svg" width="1440" height="840" viewBox="0 0 1440 840">
<rect x="0" y="0" width="1440" height="840" fill="#f8fafc"/>
<rect x="72" y="50" width="1332" height="500" fill="#ffffff" stroke="#d1d5db"/>
<line x1="72" y1="50.00" x2="1404" y2="50.00" stroke="#e5e7eb" stroke-width="1"/>
<text x="64" y="54.00" text-anchor="end" font-size="11" fill="#64748b">117.35</text>
<line x1="72" y1="133.33" x2="1404" y2="133.33" stroke="#e5e7eb" stroke-width="1"/>
<text x="64" y="137.33" text-anchor="end" font-size="11" fill="#64748b">105.29</text>
<line x1="72" y1="216.67" x2="1404" y2="216.67" stroke="#e5e7eb" stroke-width="1"/>
<text x="64" y="220.67" text-anchor="end" font-size="11" fill="#64748b">93.24</text>
<line x1="72" y1="300.00" x2="1404" y2="300.00" stroke="#e5e7eb" stroke-width="1"/>
<text x="64" y="304.00" text-anchor="end" font-size="11" fill="#64748b">81.18</text>
<line x1="72" y1="383.33" x2="1404" y2="383.33" stroke="#e5e7eb" stroke-width="1"/>
<text x="64" y="387.33" text-anchor="end" font-size="11" fill="#64748b">69.12</text>
<line x1="72" y1="466.67" x2="1404" y2="466.67" stroke="#e5e7eb" stroke-width="1"/>
<text x="64" y="470.67" text-anchor="end" font-size="11" fill="#64748b">57.07</text>
<line x1="72" y1="550.00" x2="1404" y2="550.00" stroke="#e5e7eb" stroke-width="1"/>
<text x="64" y="554.00" text-anchor="end" font-size="11" fill="#64748b">45.01</text>
<path d="M72.00,162.35 L76.45,160.11 L80.91,158.21 L85.36,156.65 L89.82,155.42 L94.27,154.49 L98.73,153.83 L103.18,153.39 L107.64,153.13 L112.09,152.99 L116.55,152.92 L121.00,152.87 L125.46,152.80 L129.91,152.65 L134.37,152.41 L138.82,152.05 L143.28,151.56 L147.73,150.93 L152.19,150.19 L156.64,149.34 L161.10,148.44 L165.55,147.51 L170.01,146.61 L174.46,145.78 L178.92,145.10 L183.37,144.60 L187.83,144.36 L192.28,144.40 L196.74,144.79 L201.19,145.54 L205.65,146.68 L210.10,148.22 L214.56,150.16 L219.01,152.47 L223.46,155.12 L227.92,158.06 L232.37,161.25 L236.83,164.62 L241.28,168.08 L245.74,171.57 L250.19,175.00 L254.65,178.28 L259.10,181.34 L263.56,184.11 L268.01,186.51 L272.47,188.49 L276.92,190.00 L281.38,191.03 L285.83,191.54 L290.29,191.54 L294.74,191.03 L299.20,190.06 L303.65,188.64 L308.11,186.85 L312.56,184.72 L317.02,182.34 L321.47,179.76 L325.93,177.07 L330.38,174.33 L334.84,171.61 L339.29,168.97 L343.75,166.45 L348.20,164.12 L352.66,161.99 L357.11,160.08 L361.57,158.41 L366.02,156.96 L370.47,155.72 L374.93,154.67 L379.38,153.77 L383.84,152.97 L388.29,152.24 L392.75,151.52 L397.20,150.76 L401.66,149.93 L406.11,148.97 L410.57,147.87 L415.02,146.60 L419.48,145.14 L423.93,143.50 L428.39,141.69 L432.84,139.73 L437.30,137.65 L441.75,135.50 L446.21,133.33 L450.66,131.21 L455.12,129.19 L459.57,127.35 L464.03,125.74 L468.48,124.44 L472.94,123.50 L477.39,122.97 L481.85,122.88 L486.30,123.26 L490.76,124.13 L495.21,125.48 L499.67,127.30 L504.12,129.56 L508.58,132.22 L513.03,135.21 L517.48,138.48 L521.94,141.96 L526.39,145.55 L530.85,149.18 L535.30,152.76 L539.76,156.21 L544.21,159.46 L548.67,162.43 L553.12,165.07 L557.58,167.33 L562.03,169.17 L566.49,170.57 L570.94,171.52 L575.40,172.03 L579.85,172.13 L584.31,171.83 L588.76,171.18 L593.22,170.24 L597.67,169.06 L602.13,167.69 L606.58,166.21 L611.04,164.67 L615.49,163.13 L619.95,161.63 L624.40,160.22 L628.86,158.94 L633.31,157.79 L637.77,156.80 L642.22,155.95 L646.68,155.24 L651.13,154.64 L655.59,154.11 L660.04,153.63 L664.49,153.14 L668.95,152.58 L673.40,151.93 L677.86,151.12 L682.31,150.11 L686.77,148.86 L691.22,147.35 L695.68,145.57 L700.13,143.49 L704.59,141.14 L709.04,138.53 L713.50,135.68 L717.95,132.66 L722.41,129.49 L726.86,126.26 L731.32,123.03 L735.77,119.88 L740.23,116.87 L744.68,114.10 L749.14,111.62 L753.59,109.50 L758.05,107.81 L762.50,106.58 L766.96,105.85 L771.41,105.65 L775.87,105.98 L780.32,106.82 L784.78,108.17 L789.23,109.97 L793.69,112.18 L798.14,114.74 L802.60,117.58 L807.05,120.63 L811.51,123.80 L815.96,127.01 L820.41,130.20 L824.87,133.27 L829.32,136.18 L833.78,138.85 L838.23,141.25 L842.69,143.34 L847.14,145.09 L851.60,146.49 L856.05,147.56 L860.51,148.31 L864.96,148.76 L869.42,148.95 L873.87,148.93 L878.33,148.75 L882.78,148.45 L887.24,148.10 L891.69,147.73 L896.15,147.40 L900.60,147.15 L905.06,147.00 L909.51,146.97 L913.97,147.07 L918.42,147.31 L922.88,147.66 L927.33,148.10 L931.79,148.60 L936.24,149.11 L940.70,149.58 L945.15,149.97 L949.61,150.20 L954.06,150.23 L958.52,150.00 L962.97,149.47 L967.42,148.59 L971.88,147.34 L976.33,145.69 L980.79,143.65 L985.24,141.22 L989.70,138.42 L994.15,135.28 L998.61,131.86 L1003.06,128.21 L1007.52,124.40 L1011.97,120.51 L1016.43,116.61 L1020.88,112.79 L1025.34,109.13 L1029.79,105.71 L1034.25,102.60 L1038.70,99.87 L1043.16,97.57 L1047.61,95.74 L1052.07,94.41 L1056.52,93.59 L1060.98,93.28 L1065.43,93.47 L1069.89,94.12 L1074.34,95.21 L1078.80,96.66 L1083.25,98.43 L1087.71,100.44 L1092.16,102.63 L1096.62,104.92 L1101.07,107.25 L1105.53,109.54 L1109.98,111.75 L1114.43,113.81 L1118.89,115.68 L1123.34,117.35 L1127.80,118.79 L1132.25,120.00 L1136.71,120.98 L1141.16,121.76 L1145.62,122.36 L1150.07,122.82 L1154.53,123.18 L1158.98,123.50 L1163.44,123.80 L1167.89,124.15 L1172.35,124.59 L1176.80,125.16 L1181.26,125.88 L1185.71,126.77 L1190.17,127.85 L1194.62,129.11 L1199.08,130.54 L1203.53,132.12 L1207.99,133.80 L1212.44,135.54 L1216.90,137.29 L1221.35,138.98 L1225.81,140.54 L1230.26,141.92 L1234.72,143.05 L1239.17,143.87 L1243.63,144.31 L1248.08,144.33 L1252.54,143.91 L1256.99,143.01 L1261.44,141.62 L1265.90,139.75 L1270.35,137.41 L1274.81,134.65 L1279.26,131.50 L1283.72,128.02 L1288.17,124.28 L1292.63,120.36 L1297.08,116.34 L1301.54,112.30 L1305.99,108.32 L1310.45,104.49 L1314.90,100.87 L1319.36,97.55 L1323.81,94.57 L1328.27,91.98 L1332.72,89.82 L1337.18,88.10 L1341.63,86.82 L1346.09,85.98 L1350.54,85.56 L1355.00,85.52 L1359.45,85.82 L1363.91,86.40 L1368.36,87.21 L1372.82,88.18 L1377.27,89.27 L1381.73,90.39 L1386.18,91.51 L1390.64,92.58 L1395.09,93.55 L1399.55,94.39 L1404.00,95.09" fill="none" stroke="#0f172a" stroke-width="1.3" opacity="0.9"/>
<path d="M72.00,515.52 L76.45,515.52 L80.91,515.52 L85.36,515.52 L89.82,515.52 L94.27,515.52 L98.73,515.52 L103.18,515.52 L107.64,515.52 L112.09,515.52 L116.55,515.52 L121.00,515.52 L125.46,515.52 L129.91,515.52 L134.37,515.52 L138.82,515.52 L143.28,515.52 L147.73,515.52 L152.19,515.52 L156.64,515.52 L161.10,515.52 L165.55,515.52 L170.01,515.52 L174.46,515.52 L178.92,515.52 L183.37,515.52 L187.83,515.52 L192.28,515.52 L196.74,515.52 L201.19,515.52 L205.65,515.52 L210.10,515.52 L214.56,515.52 L219.01,515.52 L223.46,515.52 L227.92,515.52 L232.37,515.52 L236.83,515.52 L241.28,515.52 L245.74,515.52 L250.19,515.52 L254.65,515.52 L259.10,515.52 L263.56,515.52 L268.01,515.52 L272.47,515.52 L276.92,515.52 L281.38,515.52 L285.83,515.52 L290.29,515.52 L294.74,515.52 L299.20,515.52 L303.65,515.52 L308.11,515.52 L312.56,515.52 L317.02,515.52 L321.47,515.52 L325.93,515.52 L330.38,515.52 L334.84,515.52 L339.29,515.52 L343.75,515.52 L348.20,515.52 L352.66,515.52 L357.11,515.52 L361.57,515.52 L366.02,515.52 L370.47,515.52 L374.93,515.52 L379.38,515.52 L383.84,515.52 L388.29,515.52 L392.75,515.52 L397.20,515.52 L401.66,515.52 L406.11,515.52 L410.57,515.52 L415.02,515.52 L419.48,515.52 L423.93,515.52 L428.39,515.52 L432.84,515.52 L437.30,515.52 L441.75,515.52 L446.21,515.52 L450.66,515.52 L455.12,515.52 L459.57,515.52 L464.03,515.52 L468.48,515.52 L472.94,515.52 L477.39,515.52 L481.85,515.52 L486.30,515.52 L490.76,515.52 L495.21,515.52 L499.67,515.52 L504.12,515.52 L508.58,515.52 L513.03,515.52 L517.48,515.52 L521.94,515.52 L526.39,515.52 L530.85,515.52 L535.30,515.52 L539.76,515.52 L544.21,515.52 L548.67,515.52 L553.12,515.52 L557.58,515.52 L562.03,515.52 L566.49,515.52 L570.94,515.52 L575.40,515.52 L579.85,515.52 L584.31,515.52 L588.76,515.52 L593.22,515.52 L597.67,515.52 L602.13,515.52 L606.58,515.52 L611.04,515.52 L615.49,515.52 L619.95,515.52 L624.40,515.52 L628.86,515.52 L633.31,515.52 L637.77,515.52 L642.22,515.52 L646.68,515.52 L651.13,515.52 L655.59,515.52 L660.04,515.52 L664.49,515.52 L668.95,515.52 L673.40,515.52 L677.86,515.52 L682.31,515.52 L686.77,515.52 L691.22,515.52 L695.68,515.52 L700.13,515.52 L704.59,515.52 L709.04,515.52 L713.50,515.52 L717.95,515.52 L722.41,515.52 L726.86,515.52 L731.32,515.52 L735.77,515.52 L740.23,515.52 L744.68,515.52 L749.14,515.52 L753.59,515.52 L758.05,515.52 L762.50,515.52 L766.96,515.52 L771.41,515.52 L775.87,515.52 L780.32,515.52 L784.78,515.52 L789.23,515.52 L793.69,515.52 L798.14,515.52 L802.60,515.52 L807.05,515.52 L811.51,515.52 L815.96,515.52 L820.41,515.52 L824.87,515.52 L829.32,515.52 L833.78,515.52 L838.23,515.52 L842.69,515.52 L847.14,515.52 L851.60,515.52 L856.05,515.52 L860.51,515.52 L864.96,515.52 L869.42,515.52 L873.87,515.52 L878.33,515.52 L882.78,515.52 L887.24,515.52 L891.69,515.52 L896.15,515.52 L900.60,515.52 L905.06,515.52 L909.51,515.52 L913.97,515.52 L918.42,515.52 L922.88,515.52 L927.33,515.52 L931.79,515.52 L936.24,515.52 L940.70,515.52 L945.15,515.52 L949.61,515.52 L954.06,515.52 L958.52,515.52 L962.97,515.52 L967.42,515.52 L971.88,515.52 L976.33,515.52 L980.79,515.52 L985.24,515.52 L989.70,515.52 L994.15,515.52 L998.61,515.52 L1003.06,515.52 L1007.52,515.52 L1011.97,515.52 L1016.43,515.52 L1020.88,515.52 L1025.34,515.52 L1029.79,515.52 L1034.25,515.52 L1038.70,515.52 L1043.16,515.52 L1047.61,515.52 L1052.07,515.52 L1056.52,515.52 L1060.98,515.52 L1065.43,515.52 L1069.89,515.52 L1074.34,515.52 L1078.80,515.52 L1083.25,515.52 L1087.71,515.52 L1092.16,515.52 L1096.62,515.52 L1101.07,515.52 L1105.53,515.52 L1109.98,515.52 L1114.43,515.52 L1118.89,515.52 L1123.34,515.52 L1127.80,515.52 L1132.25,515.52 L1136.71,515.52 L1141.16,515.52 L1145.62,515.52 L1150.07,515.52 L1154.53,515.52 L1158.98,515.52 L1163.44,515.52 L1167.89,515.52 L1172.35,515.52 L1176.80,515.52 L1181.26,515.52 L1185.71,515.52 L1190.17,515.52 L1194.62,515.52 L1199.08,515.52 L1203.53,515.52 L1207.99,515.52 L1212.44,515.52 L1216.90,515.52 L1221.35,515.52 L1225.81,515.52 L1230.26,515.52 L1234.72,515.52 L1239.17,515.52 L1243.63,515.52 L1248.08,515.52 L1252.54,515.52 L1256.99,515.52 L1261.44,515.52 L1265.90,515.52 L1270.35,515.52 L1274.81,515.52 L1279.26,515.52 L1283.72,515.52 L1288.17,515.52 L1292.63,515.52 L1297.08,515.52 L1301.54,515.52 L1305.99,515.52 L1310.45,515.52 L1314.90,515.52 L1319.36,515.52 L1323.81,515.52 L1328.27,515.52 L1332.72,515.52 L1337.18,515.52 L1341.63,515.52 L1346.09,515.52 L1350.54,515.52 L1355.00,515.52 L1359.45,515.52 L1363.91,515.52 L1368.36,515.52 L1372.82,515.52 L1377.27,515.52 L1381.73,515.52 L1386.18,515.52 L1390.64,515.52 L1395.09,515.52 L1399.55,515.52 L1404.00,515.52" fill="none" stroke="#f97316" stroke-width="1.6" opacity="0.95"/>
<rect x="72" y="600" width="1332" height="180" fill="#ffffff" stroke="#d1d5db"/>
<line x1="72" y1="600.00" x2="1404" y2="600.00" stroke="#f1f5f9" stroke-width="1"/>
<text x="64" y="717.00" text-anchor="end" font-size="9" fill="#64748b">plot</text>
<rect x="70.45" y="632.40" width="3.11" height="115.20" fill="#2563eb" opacity="0.68"/>
<rect x="74.90" y="632.40" width="3.11" height="115.20" fill="#2563eb" opacity="0.68"/>
<rect x="79.36" y="632.40" width="3.11" height="115.20" fill="#2563eb" opacity="0.68"/>
<rect x="83.81" y="632.40" width="3.11" height="115.20" fill="#2563eb" opacity="0.68"/>
<rect x="88.27" y="632.40" width="3.11" height="115.20" fill="#2563eb" opacity="0.68"/>
<rect x="92.72" y="632.40" width="3.11" height="115.20" fill="#2563eb" opacity="0.68"/>
<rect x="97.18" y="632.40" width="3.11" height="115.20" fill="#2563eb" opacity="0.68"/>
<rect x="101.63" y="632.40" width="3.11" height="115.20" fill="#2563eb" opacity="0.68"/>
<rect x="106.08" y="632.40" width="3.11" height="115.20" fill="#2563eb" opacity="0.68"/>
<rect x="110.54" y="632.40" width="3.11" height="115.20" fill="#2563eb" opacity="0.68"/>
<rect x="114.99" y="632.40" width="3.11" height="115.20" fill="#2563eb" opacity="0.68"/>
<rect x="119.45" y="632.40" width="3.11" height="115.20" fill="#2563eb" opacity="0.68"/>
<rect x="123.90" y="632.40" width="3.11" height="115.20" fill="#2563eb" opacity="0.68"/>
<rect x="128.36" y="632.40" width="3.11" height="115.20" fill="#2563eb" opacity="0.68"/>
<rect x="132.81" y="632.40" width="3.11" height="115.20" fill="#2563eb" opacity="0.68"/>
<rect x="137.27" y="632.40" width="3.11" height="115.20" fill="#2563eb" opacity="0.68"/>
<rect x="141.72" y="632.40" width="3.11" height="115.20" fill="#2563eb" opacity="0.68"/>
<rect x="146.18" y="632.40" width="3.11" height="115.20" fill="#2563eb" opacity="0.68"/>
<rect x="150.63" y="632.40" width="3.11" height="115.20" fill="#2563eb" opacity="0.68"/>
<rect x="155.09" y="632.40" width="3.11" height="115.20" fill="#2563eb" opacity="0.68"/>
<rect x="159.54" y="632.40" width="3.11" height="115.20" fill="#2563eb" opacity="0.68"/>
<rect x="164.00" y="632.40" width="3.11" height="115.20" fill="#2563eb" opacity="0.68"/>
<rect x="168.45" y="632.40" width="3.11" height="115.20" fill="#2563eb" opacity="0.68"/>
<rect x="172.91" y="632.40" width="3.11" height="115.20" fill="#2563eb" opacity="0.68"/>
<rect x="177.36" y="632.40" width="3.11" height="115.20" fill="#2563eb" opacity="0.68"/>
<rect x="181.82" y="632.40" width="3.11" height="115.20" fill="#2563eb" opacity="0.68"/>
<rect x="186.27" y="632.40" width="3.11" height="115.20" fill="#2563eb" opacity="0.68"/>
<rect x="190.73" y="632.40" width="3.11" height="115.20" fill="#2563eb" opacity="0.68"/>
<rect x="195.18" y="632.40" width="3.11" height="115.20" fill="#2563eb" opacity="0.68"/>
<rect x="199.64" y="632.40" width="3.11" height="115.20" fill="#2563eb" opacity="0.68"/>
<rect x="204.09" y="632.40" width="3.11" height="115.20" fill="#2563eb" opacity="0.68"/>
<rect x="208.55" y="632.40" width="3.11" height="115.20" fill="#2563eb" opacity="0.68"/>
<rect x="213.00" y="632.40" width="3.11" height="115.20" fill="#2563eb" opacity="0.68"/>
<rect x="217.46" y="632.40" width="3.11" height="115.20" fill="#2563eb" opacity="0.68"/>
<rect x="221.91" y="632.40" width="3.11" height="115.20" fill="#2563eb" opacity="0.68"/>
<rect x="226.37" y="632.40" width="3.11" height="115.20" fill="#2563eb" opacity="0.68"/>
<rect x="230.82" y="632.40" width="3.11" height="115.20" fill="#2563eb" opacity="0.68"/>
<rect x="235.28" y="632.40" width="3.11" height="115.20" fill="#2563eb" opacity="0.68"/>
<rect x="239.73" y="632.40" width="3.11" height="115.20" fill="#2563eb" opacity="0.68"/>
<rect x="244.19" y="632.40" width="3.11" height="115.20" fill="#2563eb" opacity="0.68"/>
<rect x="248.64" y="632.40" width="3.11" height="115.20" fill="#2563eb" opacity="0.68"/>
<rect x="253.09" y="632.40" width="3.11" height="115.20" fill="#2563eb" opacity="0.68"/>
<rect x="257.55" y="632.40" width="3.11" height="115.20" fill="#2563eb" opacity="0.68"/>
<rect x="262.00" y="632.40" width="3.11" height="115.20" fill="#2563eb" opacity="0.68"/>
<rect x="266.46" y="632.40" width="3.11" height="115.20" fill="#2563eb" opacity="0.68"/>
<rect x="270.91" y="632.40" width="3.11" height="115.20" fill="#2563eb" opacity="0.68"/>
<rect x="275.37" y="632.40" width="3.11" height="115.20" fill="#2563eb" opacity="0.68"/>
<rect x="279.82" y="632.40" width="3.11" height="115.20" fill="#2563eb" opacity="0.68"/>
<rect x="284.28" y="632.40" width="3.11" height="115.20" fill="#2563eb" opacity="0.68"/>
<rect x="288.73" y="632.40" width="3.11" height="115.20" fill="#2563eb" opacity="0.68"/>
<rect x="293.19" y="632.40" width="3.11" height="115.20" fill="#2563eb" opacity="0.68"/>
<rect x="297.64" y="632.40" width="3.11" height="115.20" fill="#2563eb" opacity="0.68"/>
<rect x="302.10" y="632.40" width="3.11" height="115.20" fill="#2563eb" opacity="0.68"/>
<rect x="306.55" y="632.40" width="3.11" height="115.20" fill="#2563eb" opacity="0.68"/>
<rect x="311.01" y="632.40" width="3.11" height="115.20" fill="#2563eb" opacity="0.68"/>
<rect x="315.46" y="632.40" width="3.11" height="115.20" fill="#2563eb" opacity="0.68"/>
<rect x="319.92" y="632.40" width="3.11" height="115.20" fill="#2563eb" opacity="0.68"/>
<rect x="324.37" y="632.40" width="3.11" height="115.20" fill="#2563eb" opacity="0.68"/>
<rect x="328.83" y="632.40" width="3.11" height="115.20" fill="#2563eb" opacity="0.68"/>
<rect x="333.28" y="632.40" width="3.11" height="115.20" fill="#2563eb" opacity="0.68"/>
<rect x="337.74" y="632.40" width="3.11" height="115.20" fill="#2563eb" opacity="0.68"/>
<rect x="342.19" y="632.40" width="3.11" height="115.20" fill="#2563eb" opacity="0.68"/>
<rect x="346.65" y="632.40" width="3.11" height="115.20" fill="#2563eb" opacity="0.68"/>
<rect x="351.10" y="632.40" width="3.11" height="115.20" fill="#2563eb" opacity="0.68"/>
<rect x="355.56" y="632.40" width="3.11" height="115.20" fill="#2563eb" opacity="0.68"/>
<rect x="360.01" y="632.40" width="3.11" height="115.20" fill="#2563eb" opacity="0.68"/>
<rect x="364.47" y="632.40" width="3.11" height="115.20" fill="#2563eb" opacity="0.68"/>
<rect x="368.92" y="632.40" width="3.11" height="115.20" fill="#2563eb" opacity="0.68"/>
<rect x="373.38" y="632.40" width="3.11" height="115.20" fill="#2563eb" opacity="0.68"/>
<rect x="377.83" y="632.40" width="3.11" height="115.20" fill="#2563eb" opacity="0.68"/>
<rect x="382.29" y="632.40" width="3.11" height="115.20" fill="#2563eb" opacity="0.68"/>
<rect x="386.74" y="632.40" width="3.11" height="115.20" fill="#2563eb" opacity="0.68"/>
<rect x="391.20" y="632.40" width="3.11" height="115.20" fill="#2563eb" opacity="0.68"/>
<rect x="395.65" y="632.40" width="3.11" height="115.20" fill="#2563eb" opacity="0.68"/>
<rect x="400.10" y="632.40" width="3.11" height="115.20" fill="#2563eb" opacity="0.68"/>
<rect x="404.56" y="632.40" width="3.11" height="115.20" fill="#2563eb" opacity="0.68"/>
<rect x="409.01" y="632.40" width="3.11" height="115.20" fill="#2563eb" opacity="0.68"/>
<rect x="413.47" y="632.40" width="3.11" height="115.20" fill="#2563eb" opacity="0.68"/>
<rect x="417.92" y="632.40" width="3.11" height="115.20" fill="#2563eb" opacity="0.68"/>
<rect x="422.38" y="632.40" width="3.11" height="115.20" fill="#2563eb" opacity="0.68"/>
<rect x="426.83" y="632.40" width="3.11" height="115.20" fill="#2563eb" opacity="0.68"/>
<rect x="431.29" y="632.40" width="3.11" height="115.20" fill="#2563eb" opacity="0.68"/>
<rect x="435.74" y="632.40" width="3.11" height="115.20" fill="#2563eb" opacity="0.68"/>
<rect x="440.20" y="632.40" width="3.11" height="115.20" fill="#2563eb" opacity="0.68"/>
<rect x="444.65" y="632.40" width="3.11" height="115.20" fill="#2563eb" opacity="0.68"/>
<rect x="449.11" y="632.40" width="3.11" height="115.20" fill="#2563eb" opacity="0.68"/>
<rect x="453.56" y="632.40" width="3.11" height="115.20" fill="#2563eb" opacity="0.68"/>
<rect x="458.02" y="632.40" width="3.11" height="115.20" fill="#2563eb" opacity="0.68"/>
<rect x="462.47" y="632.40" width="3.11" height="115.20" fill="#2563eb" opacity="0.68"/>
<rect x="466.93" y="632.40" width="3.11" height="115.20" fill="#2563eb" opacity="0.68"/>
<rect x="471.38" y="632.40" width="3.11" height="115.20" fill="#2563eb" opacity="0.68"/>
<rect x="475.84" y="632.40" width="3.11" height="115.20" fill="#2563eb" opacity="0.68"/>
<rect x="480.29" y="632.40" width="3.11" height="115.20" fill="#2563eb" opacity="0.68"/>
<rect x="484.75" y="632.40" width="3.11" height="115.20" fill="#2563eb" opacity="0.68"/>
<rect x="489.20" y="632.40" width="3.11" height="115.20" fill="#2563eb" opacity="0.68"/>
<rect x="493.66" y="632.40" width="3.11" height="115.20" fill="#2563eb" opacity="0.68"/>
<rect x="498.11" y="632.40" width="3.11" height="115.20" fill="#2563eb" opacity="0.68"/>
<rect x="502.57" y="632.40" width="3.11" height="115.20" fill="#2563eb" opacity="0.68"/>
<rect x="507.02" y="632.40" width="3.11" height="115.20" fill="#2563eb" opacity="0.68"/>
<rect x="511.48" y="632.40" width="3.11" height="115.20" fill="#2563eb" opacity="0.68"/>
<rect x="515.93" y="632.40" width="3.11" height="115.20" fill="#2563eb" opacity="0.68"/>
<rect x="520.39" y="632.40" width="3.11" height="115.20" fill="#2563eb" opacity="0.68"/>
<rect x="524.84" y="632.40" width="3.11" height="115.20" fill="#2563eb" opacity="0.68"/>
<rect x="529.30" y="632.40" width="3.11" height="115.20" fill="#2563eb" opacity="0.68"/>
<rect x="533.75" y="632.40" width="3.11" height="115.20" fill="#2563eb" opacity="0.68"/>
<rect x="538.21" y="632.40" width="3.11" height="115.20" fill="#2563eb" opacity="0.68"/>
<rect x="542.66" y="632.40" width="3.11" height="115.20" fill="#2563eb" opacity="0.68"/>
<rect x="547.11" y="632.40" width="3.11" height="115.20" fill="#2563eb" opacity="0.68"/>
<rect x="551.57" y="632.40" width="3.11" height="115.20" fill="#2563eb" opacity="0.68"/>
<rect x="556.02" y="632.40" width="3.11" height="115.20" fill="#2563eb" opacity="0.68"/>
<rect x="560.48" y="632.40" width="3.11" height="115.20" fill="#2563eb" opacity="0.68"/>
<rect x="564.93" y="632.40" width="3.11" height="115.20" fill="#2563eb" opacity="0.68"/>
<rect x="569.39" y="632.40" width="3.11" height="115.20" fill="#2563eb" opacity="0.68"/>
<rect x="573.84" y="632.40" width="3.11" height="115.20" fill="#2563eb" opacity="0.68"/>
<rect x="578.30" y="632.40" width="3.11" height="115.20" fill="#2563eb" opacity="0.68"/>
<rect x="582.75" y="632.40" width="3.11" height="115.20" fill="#2563eb" opacity="0.68"/>
<rect x="587.21" y="632.40" width="3.11" height="115.20" fill="#2563eb" opacity="0.68"/>
<rect x="591.66" y="632.40" width="3.11" height="115.20" fill="#2563eb" opacity="0.68"/>
<rect x="596.12" y="632.40" width="3.11" height="115.20" fill="#2563eb" opacity="0.68"/>
<rect x="600.57" y="632.40" width="3.11" height="115.20" fill="#2563eb" opacity="0.68"/>
<rect x="605.03" y="632.40" width="3.11" height="115.20" fill="#2563eb" opacity="0.68"/>
<rect x="609.48" y="632.40" width="3.11" height="115.20" fill="#2563eb" opacity="0.68"/>
<rect x="613.94" y="632.40" width="3.11" height="115.20" fill="#2563eb" opacity="0.68"/>
<rect x="618.39" y="632.40" width="3.11" height="115.20" fill="#2563eb" opacity="0.68"/>
<rect x="622.85" y="632.40" width="3.11" height="115.20" fill="#2563eb" opacity="0.68"/>
<rect x="627.30" y="632.40" width="3.11" height="115.20" fill="#2563eb" opacity="0.68"/>
<rect x="631.76" y="632.40" width="3.11" height="115.20" fill="#2563eb" opacity="0.68"/>
<rect x="636.21" y="632.40" width="3.11" height="115.20" fill="#2563eb" opacity="0.68"/>
<rect x="640.67" y="632.40" width="3.11" height="115.20" fill="#2563eb" opacity="0.68"/>
<rect x="645.12" y="632.40" width="3.11" height="115.20" fill="#2563eb" opacity="0.68"/>
<rect x="649.58" y="632.40" width="3.11" height="115.20" fill="#2563eb" opacity="0.68"/>
<rect x="654.03" y="632.40" width="3.11" height="115.20" fill="#2563eb" opacity="0.68"/>
<rect x="658.49" y="632.40" width="3.11" height="115.20" fill="#2563eb" opacity="0.68"/>
<rect x="662.94" y="632.40" width="3.11" height="115.20" fill="#2563eb" opacity="0.68"/>
<rect x="667.40" y="632.40" width="3.11" height="115.20" fill="#2563eb" opacity="0.68"/>
<rect x="671.85" y="632.40" width="3.11" height="115.20" fill="#2563eb" opacity="0.68"/>
<rect x="676.31" y="632.40" width="3.11" height="115.20" fill="#2563eb" opacity="0.68"/>
<rect x="680.76" y="632.40" width="3.11" height="115.20" fill="#2563eb" opacity="0.68"/>
<rect x="685.22" y="632.40" width="3.11" height="115.20" fill="#2563eb" opacity="0.68"/>
<rect x="689.67" y="632.40" width="3.11" height="115.20" fill="#2563eb" opacity="0.68"/>
<rect x="694.12" y="632.40" width="3.11" height="115.20" fill="#2563eb" opacity="0.68"/>
<rect x="698.58" y="632.40" width="3.11" height="115.20" fill="#2563eb" opacity="0.68"/>
<rect x="703.03" y="632.40" width="3.11" height="115.20" fill="#2563eb" opacity="0.68"/>
<rect x="707.49" y="632.40" width="3.11" height="115.20" fill="#2563eb" opacity="0.68"/>
<rect x="711.94" y="632.40" width="3.11" height="115.20" fill="#2563eb" opacity="0.68"/>
<rect x="716.40" y="632.40" width="3.11" height="115.20" fill="#2563eb" opacity="0.68"/>
<rect x="720.85" y="632.40" width="3.11" height="115.20" fill="#2563eb" opacity="0.68"/>
<rect x="725.31" y="632.40" width="3.11" height="115.20" fill="#2563eb" opacity="0.68"/>
<rect x="729.76" y="632.40" width="3.11" height="115.20" fill="#2563eb" opacity="0.68"/>
<rect x="734.22" y="632.40" width="3.11" height="115.20" fill="#2563eb" opacity="0.68"/>
<rect x="738.67" y="632.40" width="3.11" height="115.20" fill="#2563eb" opacity="0.68"/>
<rect x="743.13" y="632.40" width="3.11" height="115.20" fill="#2563eb" opacity="0.68"/>
<rect x="747.58" y="632.40" width="3.11" height="115.20" fill="#2563eb" opacity="0.68"/>
<rect x="752.04" y="632.40" width="3.11" height="115.20" fill="#2563eb" opacity="0.68"/>
<rect x="756.49" y="632.40" width="3.11" height="115.20" fill="#2563eb" opacity="0.68"/>
<rect x="760.95" y="632.40" width="3.11" height="115.20" fill="#2563eb" opacity="0.68"/>
<rect x="765.40" y="632.40" width="3.11" height="115.20" fill="#2563eb" opacity="0.68"/>
<rect x="769.86" y="632.40" width="3.11" height="115.20" fill="#2563eb" opacity="0.68"/>
<rect x="774.31" y="632.40" width="3.11" height="115.20" fill="#2563eb" opacity="0.68"/>
<rect x="778.77" y="632.40" width="3.11" height="115.20" fill="#2563eb" opacity="0.68"/>
<rect x="783.22" y="632.40" width="3.11" height="115.20" fill="#2563eb" opacity="0.68"/>
<rect x="787.68" y="632.40" width="3.11" height="115.20" fill="#2563eb" opacity="0.68"/>
<rect x="792.13" y="632.40" width="3.11" height="115.20" fill="#2563eb" opacity="0.68"/>
<rect x="796.59" y="632.40" width="3.11" height="115.20" fill="#2563eb" opacity="0.68"/>
<rect x="801.04" y="632.40" width="3.11" height="115.20" fill="#2563eb" opacity="0.68"/>
<rect x="805.50" y="632.40" width="3.11" height="115.20" fill="#2563eb" opacity="0.68"/>
<rect x="809.95" y="632.40" width="3.11" height="115.20" fill="#2563eb" opacity="0.68"/>
<rect x="814.41" y="632.40" width="3.11" height="115.20" fill="#2563eb" opacity="0.68"/>
<rect x="818.86" y="632.40" width="3.11" height="115.20" fill="#2563eb" opacity="0.68"/>
<rect x="823.32" y="632.40" width="3.11" height="115.20" fill="#2563eb" opacity="0.68"/>
<rect x="827.77" y="632.40" width="3.11" height="115.20" fill="#2563eb" opacity="0.68"/>
<rect x="832.23" y="632.40" width="3.11" height="115.20" fill="#2563eb" opacity="0.68"/>
<rect x="836.68" y="632.40" width="3.11" height="115.20" fill="#2563eb" opacity="0.68"/>
<rect x="841.13" y="632.40" width="3.11" height="115.20" fill="#2563eb" opacity="0.68"/>
<rect x="845.59" y="632.40" width="3.11" height="115.20" fill="#2563eb" opacity="0.68"/>
<rect x="850.04" y="632.40" width="3.11" height="115.20" fill="#2563eb" opacity="0.68"/>
<rect x="854.50" y="632.40" width="3.11" height="115.20" fill="#2563eb" opacity="0.68"/>
<rect x="858.95" y="632.40" width="3.11" height="115.20" fill="#2563eb" opacity="0.68"/>
<rect x="863.41" y="632.40" width="3.11" height="115.20" fill="#2563eb" opacity="0.68"/>
<rect x="867.86" y="632.40" width="3.11" height="115.20" fill="#2563eb" opacity="0.68"/>
<rect x="872.32" y="632.40" width="3.11" height="115.20" fill="#2563eb" opacity="0.68"/>
<rect x="876.77" y="632.40" width="3.11" height="115.20" fill="#2563eb" opacity="0.68"/>
<rect x="881.23" y="632.40" width="3.11" height="115.20" fill="#2563eb" opacity="0.68"/>
<rect x="885.68" y="632.40" width="3.11" height="115.20" fill="#2563eb" opacity="0.68"/>
<rect x="890.14" y="632.40" width="3.11" height="115.20" fill="#2563eb" opacity="0.68"/>
<rect x="894.59" y="632.40" width="3.11" height="115.20" fill="#2563eb" opacity="0.68"/>
<rect x="899.05" y="632.40" width="3.11" height="115.20" fill="#2563eb" opacity="0.68"/>
<rect x="903.50" y="632.40" width="3.11" height="115.20" fill="#2563eb" opacity="0.68"/>
<rect x="907.96" y="632.40" width="3.11" height="115.20" fill="#2563eb" opacity="0.68"/>
<rect x="912.41" y="632.40" width="3.11" height="115.20" fill="#2563eb" opacity="0.68"/>
<rect x="916.87" y="632.40" width="3.11" height="115.20" fill="#2563eb" opacity="0.68"/>
<rect x="921.32" y="632.40" width="3.11" height="115.20" fill="#2563eb" opacity="0.68"/>
<rect x="925.78" y="632.40" width="3.11" height="115.20" fill="#2563eb" opacity="0.68"/>
<rect x="930.23" y="632.40" width="3.11" height="115.20" fill="#2563eb" opacity="0.68"/>
<rect x="934.69" y="632.40" width="3.11" height="115.20" fill="#2563eb" opacity="0.68"/>
<rect x="939.14" y="632.40" width="3.11" height="115.20" fill="#2563eb" opacity="0.68"/>
<rect x="943.60" y="632.40" width="3.11" height="115.20" fill="#2563eb" opacity="0.68"/>
<rect x="948.05" y="632.40" width="3.11" height="115.20" fill="#2563eb" opacity="0.68"/>
<rect x="952.51" y="632.40" width="3.11" height="115.20" fill="#2563eb" opacity="0.68"/>
<rect x="956.96" y="632.40" width="3.11" height="115.20" fill="#2563eb" opacity="0.68"/>
<rect x="961.42" y="632.40" width="3.11" height="115.20" fill="#2563eb" opacity="0.68"/>
<rect x="965.87" y="632.40" width="3.11" height="115.20" fill="#2563eb" opacity="0.68"/>
<rect x="970.33" y="632.40" width="3.11" height="115.20" fill="#2563eb" opacity="0.68"/>
<rect x="974.78" y="632.40" width="3.11" height="115.20" fill="#2563eb" opacity="0.68"/>
<rect x="979.24" y="632.40" width="3.11" height="115.20" fill="#2563eb" opacity="0.68"/>
<rect x="983.69" y="632.40" width="3.11" height="115.20" fill="#2563eb" opacity="0.68"/>
<rect x="988.14" y="632.40" width="3.11" height="115.20" fill="#2563eb" opacity="0.68"/>
<rect x="992.60" y="632.40" width="3.11" height="115.20" fill="#2563eb" opacity="0.68"/>
<rect x="997.05" y="632.40" width="3.11" height="115.20" fill="#2563eb" opacity="0.68"/>
<rect x="1001.51" y="632.40" width="3.11" height="115.20" fill="#2563eb" opacity="0.68"/>
<rect x="1005.96" y="632.40" width="3.11" height="115.20" fill="#2563eb" opacity="0.68"/>
<rect x="1010.42" y="632.40" width="3.11" height="115.20" fill="#2563eb" opacity="0.68"/>
<rect x="1014.87" y="632.40" width="3.11" height="115.20" fill="#2563eb" opacity="0.68"/>
<rect x="1019.33" y="632.40" width="3.11" height="115.20" fill="#2563eb" opacity="0.68"/>
<rect x="1023.78" y="632.40" width="3.11" height="115.20" fill="#2563eb" opacity="0.68"/>
<rect x="1028.24" y="632.40" width="3.11" height="115.20" fill="#2563eb" opacity="0.68"/>
<rect x="1032.69" y="632.40" width="3.11" height="115.20" fill="#2563eb" opacity="0.68"/>
<rect x="1037.15" y="632.40" width="3.11" height="115.20" fill="#2563eb" opacity="0.68"/>
<rect x="1041.60" y="632.40" width="3.11" height="115.20" fill="#2563eb" opacity="0.68"/>
<rect x="1046.06" y="632.40" width="3.11" height="115.20" fill="#2563eb" opacity="0.68"/>
<rect x="1050.51" y="632.40" width="3.11" height="115.20" fill="#2563eb" opacity="0.68"/>
<rect x="1054.97" y="632.40" width="3.11" height="115.20" fill="#2563eb" opacity="0.68"/>
<rect x="1059.42" y="632.40" width="3.11" height="115.20" fill="#2563eb" opacity="0.68"/>
<rect x="1063.88" y="632.40" width="3.11" height="115.20" fill="#2563eb" opacity="0.68"/>
<rect x="1068.33" y="632.40" width="3.11" height="115.20" fill="#2563eb" opacity="0.68"/>
<rect x="1072.79" y="632.40" width="3.11" height="115.20" fill="#2563eb" opacity="0.68"/>
<rect x="1077.24" y="632.40" width="3.11" height="115.20" fill="#2563eb" opacity="0.68"/>
<rect x="1081.70" y="632.40" width="3.11" height="115.20" fill="#2563eb" opacity="0.68"/>
<rect x="1086.15" y="632.40" width="3.11" height="115.20" fill="#2563eb" opacity="0.68"/>
<rect x="1090.61" y="632.40" width="3.11" height="115.20" fill="#2563eb" opacity="0.68"/>
<rect x="1095.06" y="632.40" width="3.11" height="115.20" fill="#2563eb" opacity="0.68"/>
<rect x="1099.52" y="632.40" width="3.11" height="115.20" fill="#2563eb" opacity="0.68"/>
<rect x="1103.97" y="632.40" width="3.11" height="115.20" fill="#2563eb" opacity="0.68"/>
<rect x="1108.43" y="632.40" width="3.11" height="115.20" fill="#2563eb" opacity="0.68"/>
<rect x="1112.88" y="632.40" width="3.11" height="115.20" fill="#2563eb" opacity="0.68"/>
<rect x="1117.34" y="632.40" width="3.11" height="115.20" fill="#2563eb" opacity="0.68"/>
<rect x="1121.79" y="632.40" width="3.11" height="115.20" fill="#2563eb" opacity="0.68"/>
<rect x="1126.25" y="632.40" width="3.11" height="115.20" fill="#2563eb" opacity="0.68"/>
<rect x="1130.70" y="632.40" width="3.11" height="115.20" fill="#2563eb" opacity="0.68"/>
<rect x="1135.16" y="632.40" width="3.11" height="115.20" fill="#2563eb" opacity="0.68"/>
<rect x="1139.61" y="632.40" width="3.11" height="115.20" fill="#2563eb" opacity="0.68"/>
<rect x="1144.06" y="632.40" width="3.11" height="115.20" fill="#2563eb" opacity="0.68"/>
<rect x="1148.52" y="632.40" width="3.11" height="115.20" fill="#2563eb" opacity="0.68"/>
<rect x="1152.97" y="632.40" width="3.11" height="115.20" fill="#2563eb" opacity="0.68"/>
<rect x="1157.43" y="632.40" width="3.11" height="115.20" fill="#2563eb" opacity="0.68"/>
<rect x="1161.88" y="632.40" width="3.11" height="115.20" fill="#2563eb" opacity="0.68"/>
<rect x="1166.34" y="632.40" width="3.11" height="115.20" fill="#2563eb" opacity="0.68"/>
<rect x="1170.79" y="632.40" width="3.11" height="115.20" fill="#2563eb" opacity="0.68"/>
<rect x="1175.25" y="632.40" width="3.11" height="115.20" fill="#2563eb" opacity="0.68"/>
<rect x="1179.70" y="632.40" width="3.11" height="115.20" fill="#2563eb" opacity="0.68"/>
<rect x="1184.16" y="632.40" width="3.11" height="115.20" fill="#2563eb" opacity="0.68"/>
<rect x="1188.61" y="632.40" width="3.11" height="115.20" fill="#2563eb" opacity="0.68"/>
<rect x="1193.07" y="632.40" width="3.11" height="115.20" fill="#2563eb" opacity="0.68"/>
<rect x="1197.52" y="632.40" width="3.11" height="115.20" fill="#2563eb" opacity="0.68"/>
<rect x="1201.98" y="632.40" width="3.11" height="115.20" fill="#2563eb" opacity="0.68"/>
<rect x="1206.43" y="632.40" width="3.11" height="115.20" fill="#2563eb" opacity="0.68"/>
<rect x="1210.89" y="632.40" width="3.11" height="115.20" fill="#2563eb" opacity="0.68"/>
<rect x="1215.34" y="632.40" width="3.11" height="115.20" fill="#2563eb" opacity="0.68"/>
<rect x="1219.80" y="632.40" width="3.11" height="115.20" fill="#2563eb" opacity="0.68"/>
<rect x="1224.25" y="632.40" width="3.11" height="115.20" fill="#2563eb" opacity="0.68"/>
<rect x="1228.71" y="632.40" width="3.11" height="115.20" fill="#2563eb" opacity="0.68"/>
<rect x="1233.16" y="632.40" width="3.11" height="115.20" fill="#2563eb" opacity="0.68"/>
<rect x="1237.62" y="632.40" width="3.11" height="115.20" fill="#2563eb" opacity="0.68"/>
<rect x="1242.07" y="632.40" width="3.11" height="115.20" fill="#2563eb" opacity="0.68"/>
<rect x="1246.53" y="632.40" width="3.11" height="115.20" fill="#2563eb" opacity="0.68"/>
<rect x="1250.98" y="632.40" width="3.11" height="115.20" fill="#2563eb" opacity="0.68"/>
<rect x="1255.44" y="632.40" width="3.11" height="115.20" fill="#2563eb" opacity="0.68"/>
<rect x="1259.89" y="632.40" width="3.11" height="115.20" fill="#2563eb" opacity="0.68"/>
<rect x="1264.35" y="632.40" width="3.11" height="115.20" fill="#2563eb" opacity="0.68"/>
<rect x="1268.80" y="632.40" width="3.11" height="115.20" fill="#2563eb" opacity="0.68"/>
<rect x="1273.26" y="632.40" width="3.11" height="115.20" fill="#2563eb" opacity="0.68"/>
<rect x="1277.71" y="632.40" width="3.11" height="115.20" fill="#2563eb" opacity="0.68"/>
<rect x="1282.17" y="632.40" width="3.11" height="115.20" fill="#2563eb" opacity="0.68"/>
<rect x="1286.62" y="632.40" width="3.11" height="115.20" fill="#2563eb" opacity="0.68"/>
<rect x="1291.07" y="632.40" width="3.11" height="115.20" fill="#2563eb" opacity="0.68"/>
<rect x="1295.53" y="632.40" width="3.11" height="115.20" fill="#2563eb" opacity="0.68"/>
<rect x="1299.98" y="632.40" width="3.11" height="115.20" fill="#2563eb" opacity="0.68"/>
<rect x="1304.44" y="632.40" width="3.11" height="115.20" fill="#2563eb" opacity="0.68"/>
<rect x="1308.89" y="632.40" width="3.11" height="115.20" fill="#2563eb" opacity="0.68"/>
<rect x="1313.35" y="632.40" width="3.11" height="115.20" fill="#2563eb" opacity="0.68"/>
<rect x="1317.80" y="632.40" width="3.11" height="115.20" fill="#2563eb" opacity="0.68"/>
<rect x="1322.26" y="632.40" width="3.11" height="115.20" fill="#2563eb" opacity="0.68"/>
<rect x="1326.71" y="632.40" width="3.11" height="115.20" fill="#2563eb" opacity="0.68"/>
<rect x="1331.17" y="632.40" width="3.11" height="115.20" fill="#2563eb" opacity="0.68"/>
<rect x="1335.62" y="632.40" width="3.11" height="115.20" fill="#2563eb" opacity="0.68"/>
<rect x="1340.08" y="632.40" width="3.11" height="115.20" fill="#2563eb" opacity="0.68"/>
<rect x="1344.53" y="632.40" width="3.11" height="115.20" fill="#2563eb" opacity="0.68"/>
<rect x="1348.99" y="632.40" width="3.11" height="115.20" fill="#2563eb" opacity="0.68"/>
<rect x="1353.44" y="632.40" width="3.11" height="115.20" fill="#2563eb" opacity="0.68"/>
<rect x="1357.90" y="632.40" width="3.11" height="115.20" fill="#2563eb" opacity="0.68"/>
<rect x="1362.35" y="632.40" width="3.11" height="115.20" fill="#2563eb" opacity="0.68"/>
<rect x="1366.81" y="632.40" width="3.11" height="115.20" fill="#2563eb" opacity="0.68"/>
<rect x="1371.26" y="632.40" width="3.11" height="115.20" fill="#2563eb" opacity="0.68"/>
<rect x="1375.72" y="632.40" width="3.11" height="115.20" fill="#2563eb" opacity="0.68"/>
<rect x="1380.17" y="632.40" width="3.11" height="115.20" fill="#2563eb" opacity="0.68"/>
<rect x="1384.63" y="632.40" width="3.11" height="115.20" fill="#2563eb" opacity="0.68"/>
<rect x="1389.08" y="632.40" width="3.11" height="115.20" fill="#2563eb" opacity="0.68"/>
<rect x="1393.54" y="632.40" width="3.11" height="115.20" fill="#2563eb" opacity="0.68"/>
<rect x="1397.99" y="632.40" width="3.11" height="115.20" fill="#2563eb" opacity="0.68"/>
<rect x="1402.45" y="632.40" width="3.11" height="115.20" fill="#2563eb" opacity="0.68"/>
<text x="72" y="24" font-size="16" font-family="Menlo, Monaco, Consolas, monospace" fill="#0f172a">top100/qqe_mod.pine visual harness</text>
<text x="72" y="820" font-size="11" fill="#64748b">bars=300 events=1200 rows=1</text>
</svg>
